<svg width="24" height="24" viewBox="0 0 24 24" fill="none" xmlns="http://www.w3.org/2000/svg">
<path d="M0 6C0 2.68629 2.68629 0 6 0H18C21.3137 0 24 2.68629 24 6V18C24 21.3137 21.3137 24 18 24H6C2.68629 24 0 21.3137 0 18V6Z" fill="url(#paint0_linear_2145_3174)"/>
<path d="M13.9578 9.72581C13.8028 9.72581 13.677 9.60009 13.677 9.44501V7.99701C13.677 7.84192 13.8028 7.7162 13.9578 7.7162H21.3256C21.4807 7.7162 21.6064 7.84192 21.6064 7.99701V11.1742C21.6064 11.3293 21.4807 11.455 21.3256 11.455H19.7841C19.6291 11.455 19.5033 11.3293 19.5033 11.1742V10.0066C19.5033 9.85153 19.3776 9.72581 19.2225 9.72581H13.9578Z" fill="#121214"/>
<path d="M2.67439 9.72582C2.5193 9.72582 2.39359 9.6001 2.39359 9.44502V7.99702C2.39359 7.84194 2.5193 7.71622 2.67439 7.71622H10.0422C10.1972 7.71622 10.323 7.84194 10.323 7.99702V11.1742C10.323 11.3293 10.1972 11.455 10.0422 11.455H8.50069C8.34561 11.455 8.21989 11.3293 8.21989 11.1742V10.0066C8.21989 9.85154 8.09417 9.72582 7.93908 9.72582H2.67439Z" fill="#121214"/>
<path d="M9.06678 15.9884C8.9117 15.9884 8.78598 15.8627 8.78598 15.7076V14.4777C8.78598 14.3226 8.9117 14.1969 9.06678 14.1969H16.232C16.3871 14.1969 16.5128 14.3226 16.5128 14.4777V15.7076C16.5128 15.8627 16.3871 15.9884 16.232 15.9884H9.06678Z" fill="#121214"/>
<defs>
<linearGradient id="paint0_linear_2145_3174" x1="12" y1="0" x2="12" y2="24" gradientUnits="userSpaceOnUse">
<stop offset="0.75" stop-color="#FD62AC"/>
<stop offset="0.875" stop-color="#FE6892"/>
</linearGradient>
</defs>
</svg>
